{
    "asset" : {
        "generator" : "Khronos glTF Blender I/O v1.7.33",
        "version" : "2.0"
    },
    "extensionsUsed" : [
        "KHR_materials_transmission"
    ],
    "scene" : 0,
    "scenes" : [
        {
            "name" : "Scene",
            "nodes" : [
                0,
                1,
                2
            ]
        }
    ],
    "nodes" : [
        {
            "mesh" : 0,
            "name" : "Cube"
        },
        {
            "mesh" : 1,
            "name" : "Cube.001",
            "translation" : [
                1.3308181762695312,
                0.2191295623779297,
                -0.197109192609787
            ]
        },
        {
            "mesh" : 2,
            "name" : "Cube.002",
            "rotation" : [
                0,
                1,
                0,
                -1.6292068494294654e-07
            ],
            "translation" : [
                -1.3308643102645874,
                0.2191295623779297,
                -0.197109192609787
            ]
        }
    ],
    "materials" : [
        {
            "doubleSided" : true,
            "extensions" : {
                "KHR_materials_transmission" : {
                    "transmissionFactor" : 0.29607251286506653
                }
            },
            "name" : "Material.001",
            "pbrMetallicRoughness" : {
                "baseColorFactor" : [
                    0,
                    0,
                    0,
                    1
                ],
                "roughnessFactor" : 0.5543806552886963
            }
        },
        {
            "doubleSided" : true,
            "name" : "EMISSION",
            "pbrMetallicRoughness" : {
                "baseColorFactor" : [
                    1,
                    0,
                    0.0002206296776421368,
                    1
                ],
                "metallicFactor" : 0,
                "roughnessFactor" : 0.5
            }
        }
    ],
    "meshes" : [
        {
            "name" : "Cube",
            "primitives" : [
                {
                    "attributes" : {
                        "POSITION" : 0,
                        "NORMAL" : 1,
                        "TEXCOORD_0" : 2
                    },
                    "indices" : 3,
                    "material" : 0
                },
                {
                    "attributes" : {
                        "POSITION" : 4,
                        "NORMAL" : 5,
                        "TEXCOORD_0" : 6
                    },
                    "indices" : 7,
                    "material" : 1
                }
            ]
        },
        {
            "name" : "Cube.008",
            "primitives" : [
                {
                    "attributes" : {
                        "POSITION" : 8,
                        "NORMAL" : 9,
                        "TEXCOORD_0" : 10
                    },
                    "indices" : 11,
                    "material" : 0
                },
                {
                    "attributes" : {
                        "POSITION" : 12,
                        "NORMAL" : 13,
                        "TEXCOORD_0" : 14
                    },
                    "indices" : 15,
                    "material" : 1
                }
            ]
        },
        {
            "name" : "Cube.009",
            "primitives" : [
                {
                    "attributes" : {
                        "POSITION" : 16,
                        "NORMAL" : 17,
                        "TEXCOORD_0" : 18
                    },
                    "indices" : 11,
                    "material" : 0
                },
                {
                    "attributes" : {
                        "POSITION" : 19,
                        "NORMAL" : 20,
                        "TEXCOORD_0" : 21
                    },
                    "indices" : 15,
                    "material" : 1
                }
            ]
        }
    ],
    "accessors" : [
        {
            "bufferView" : 0,
            "componentType" : 5126,
            "count" : 729,
            "max" : [
                0.6323447823524475,
                0.5812278389930725,
                0.8056914210319519
            ],
            "min" : [
                -0.6323447823524475,
                -1.4397594928741455,
                -0.8559411764144897
            ],
            "type" : "VEC3"
        },
        {
            "bufferView" : 1,
            "componentType" : 5126,
            "count" : 729,
            "type" : "VEC3"
        },
        {
            "bufferView" : 2,
            "componentType" : 5126,
            "count" : 729,
            "type" : "VEC2"
        },
        {
            "bufferView" : 3,
            "componentType" : 5123,
            "count" : 1089,
            "type" : "SCALAR"
        },
        {
            "bufferView" : 4,
            "componentType" : 5126,
            "count" : 5832,
            "max" : [
                0.6372338533401489,
                0.5862175822257996,
                0.8106276392936707
            ],
            "min" : [
                -0.6372338533401489,
                -1.4439020156860352,
                -0.8604888916015625
            ],
            "type" : "VEC3"
        },
        {
            "bufferView" : 5,
            "componentType" : 5126,
            "count" : 5832,
            "type" : "VEC3"
        },
        {
            "bufferView" : 6,
            "componentType" : 5126,
            "count" : 5832,
            "type" : "VEC2"
        },
        {
            "bufferView" : 7,
            "componentType" : 5123,
            "count" : 8748,
            "type" : "SCALAR"
        },
        {
            "bufferView" : 8,
            "componentType" : 5126,
            "count" : 416,
            "max" : [
                1.1612060070037842,
                0.6473472714424133,
                0.46157020330429077
            ],
            "min" : [
                -0.5219942927360535,
                -2.107365846633911,
                -0.46157020330429077
            ],
            "type" : "VEC3"
        },
        {
            "bufferView" : 9,
            "componentType" : 5126,
            "count" : 416,
            "type" : "VEC3"
        },
        {
            "bufferView" : 10,
            "componentType" : 5126,
            "count" : 416,
            "type" : "VEC2"
        },
        {
            "bufferView" : 11,
            "componentType" : 5123,
            "count" : 660,
            "type" : "SCALAR"
        },
        {
            "bufferView" : 12,
            "componentType" : 5126,
            "count" : 3328,
            "max" : [
                1.1657754182815552,
                0.6523211598396301,
                0.465655118227005
            ],
            "min" : [
                -0.5259742140769958,
                -2.1115777492523193,
                -0.465655118227005
            ],
            "type" : "VEC3"
        },
        {
            "bufferView" : 13,
            "componentType" : 5126,
            "count" : 3328,
            "type" : "VEC3"
        },
        {
            "bufferView" : 14,
            "componentType" : 5126,
            "count" : 3328,
            "type" : "VEC2"
        },
        {
            "bufferView" : 15,
            "componentType" : 5123,
            "count" : 4992,
            "type" : "SCALAR"
        },
        {
            "bufferView" : 16,
            "componentType" : 5126,
            "count" : 416,
            "max" : [
                1.1612060070037842,
                0.6473472714424133,
                0.46157020330429077
            ],
            "min" : [
                -0.5219942927360535,
                -2.107365846633911,
                -0.46157020330429077
            ],
            "type" : "VEC3"
        },
        {
            "bufferView" : 17,
            "componentType" : 5126,
            "count" : 416,
            "type" : "VEC3"
        },
        {
            "bufferView" : 18,
            "componentType" : 5126,
            "count" : 416,
            "type" : "VEC2"
        },
        {
            "bufferView" : 19,
            "componentType" : 5126,
            "count" : 3328,
            "max" : [
                1.1657754182815552,
                0.6523211598396301,
                0.465655118227005
            ],
            "min" : [
                -0.5259742140769958,
                -2.1115777492523193,
                -0.465655118227005
            ],
            "type" : "VEC3"
        },
        {
            "bufferView" : 20,
            "componentType" : 5126,
            "count" : 3328,
            "type" : "VEC3"
        },
        {
            "bufferView" : 21,
            "componentType" : 5126,
            "count" : 3328,
            "type" : "VEC2"
        }
    ],
    "bufferViews" : [
        {
            "buffer" : 0,
            "byteLength" : 8748,
            "byteOffset" : 0
        },
        {
            "buffer" : 0,
            "byteLength" : 8748,
            "byteOffset" : 8748
        },
        {
            "buffer" : 0,
            "byteLength" : 5832,
            "byteOffset" : 17496
        },
        {
            "buffer" : 0,
            "byteLength" : 2178,
            "byteOffset" : 23328
        },
        {
            "buffer" : 0,
            "byteLength" : 69984,
            "byteOffset" : 25508
        },
        {
            "buffer" : 0,
            "byteLength" : 69984,
            "byteOffset" : 95492
        },
        {
            "buffer" : 0,
            "byteLength" : 46656,
            "byteOffset" : 165476
        },
        {
            "buffer" : 0,
            "byteLength" : 17496,
            "byteOffset" : 212132
        },
        {
            "buffer" : 0,
            "byteLength" : 4992,
            "byteOffset" : 229628
        },
        {
            "buffer" : 0,
            "byteLength" : 4992,
            "byteOffset" : 234620
        },
        {
            "buffer" : 0,
            "byteLength" : 3328,
            "byteOffset" : 239612
        },
        {
            "buffer" : 0,
            "byteLength" : 1320,
            "byteOffset" : 242940
        },
        {
            "buffer" : 0,
            "byteLength" : 39936,
            "byteOffset" : 244260
        },
        {
            "buffer" : 0,
            "byteLength" : 39936,
            "byteOffset" : 284196
        },
        {
            "buffer" : 0,
            "byteLength" : 26624,
            "byteOffset" : 324132
        },
        {
            "buffer" : 0,
            "byteLength" : 9984,
            "byteOffset" : 350756
        },
        {
            "buffer" : 0,
            "byteLength" : 4992,
            "byteOffset" : 360740
        },
        {
            "buffer" : 0,
            "byteLength" : 4992,
            "byteOffset" : 365732
        },
        {
            "buffer" : 0,
            "byteLength" : 3328,
            "byteOffset" : 370724
        },
        {
            "buffer" : 0,
            "byteLength" : 39936,
            "byteOffset" : 374052
        },
        {
            "buffer" : 0,
            "byteLength" : 39936,
            "byteOffset" : 413988
        },
        {
            "buffer" : 0,
            "byteLength" : 26624,
            "byteOffset" : 453924
        }
    ],
    "buffers" : [
        {
            "byteLength" : 480548,
            "uri" : "jester.bin"
        }
    ]
}
